<?xml version="1.0" standalone="no"?><!DOCTYPE svg PUBLIC "-//W3C//DTD SVG 1.1//EN" "http://www.w3.org/Graphics/SVG/1.1/DTD/svg11.dtd"><svg xmlns:xlink="http://www.w3.org/1999/xlink" height="400" viewBox="0 0 600 400" width="600" xmlns="http://www.w3.org/2000/svg" style="font-family:'lucida grande', 'lucida sans unicode', arial, helvetica, sans-serif;font-size:12px;" class="highcharts-root" version="1.1"><desc>Created with Highstock 5.0.0</desc><defs><clipPath id="highcharts-9"><rect fill="none" height="306" width="407" y="0" x="0"></rect></clipPath></defs><rect ry="0" rx="0" height="400" width="600" y="0" x="0" class="highcharts-background" fill="transparent"></rect><rect height="306" width="407" y="59" x="53" class="highcharts-plot-background" fill="none"></rect><g class="highcharts-plot-lines-0"><path visibility="hidden" stroke-width="1" stroke="#808080" fill="none"></path></g><g class="highcharts-grid highcharts-xaxis-grid "><path opacity="1" d="M 62.5 59 L 62.5 365" class="highcharts-grid-line" fill="none"></path><path opacity="1" d="M 100.5 59 L 100.5 365" class="highcharts-grid-line" fill="none"></path><path opacity="1" d="M 139.5 59 L 139.5 365" class="highcharts-grid-line" fill="none"></path><path opacity="1" d="M 178.5 59 L 178.5 365" class="highcharts-grid-line" fill="none"></path><path opacity="1" d="M 217.5 59 L 217.5 365" class="highcharts-grid-line" fill="none"></path><path opacity="1" d="M 256.5 59 L 256.5 365" class="highcharts-grid-line" fill="none"></path><path opacity="1" d="M 294.5 59 L 294.5 365" class="highcharts-grid-line" fill="none"></path><path opacity="1" d="M 333.5 59 L 333.5 365" class="highcharts-grid-line" fill="none"></path><path opacity="1" d="M 372.5 59 L 372.5 365" class="highcharts-grid-line" fill="none"></path><path opacity="1" d="M 411.5 59 L 411.5 365" class="highcharts-grid-line" fill="none"></path><path opacity="1" d="M 449.5 59 L 449.5 365" class="highcharts-grid-line" fill="none"></path></g><g class="highcharts-grid highcharts-yaxis-grid "><path opacity="1" d="M 53 365.5 L 460 365.5" class="highcharts-grid-line" stroke-width="1" stroke="#e6e6e6" fill="none"></path><path opacity="1" d="M 53 321.5 L 460 321.5" class="highcharts-grid-line" stroke-width="1" stroke="#e6e6e6" fill="none"></path><path opacity="1" d="M 53 278.5 L 460 278.5" class="highcharts-grid-line" stroke-width="1" stroke="#e6e6e6" fill="none"></path><path opacity="1" d="M 53 234.5 L 460 234.5" class="highcharts-grid-line" stroke-width="1" stroke="#e6e6e6" fill="none"></path><path opacity="1" d="M 53 190.5 L 460 190.5" class="highcharts-grid-line" stroke-width="1" stroke="#e6e6e6" fill="none"></path><path opacity="1" d="M 53 146.5 L 460 146.5" class="highcharts-grid-line" stroke-width="1" stroke="#e6e6e6" fill="none"></path><path opacity="1" d="M 53 103.5 L 460 103.5" class="highcharts-grid-line" stroke-width="1" stroke="#e6e6e6" fill="none"></path><path opacity="1" d="M 53 59.5 L 460 59.5" class="highcharts-grid-line" stroke-width="1" stroke="#e6e6e6" fill="none"></path></g><rect height="306" width="407" y="59" x="53" class="highcharts-plot-border" fill="none"></rect><g class="highcharts-axis highcharts-xaxis "><path opacity="1" d="M 62.5 365 L 62.5 375" stroke-width="1" stroke="#ccd6eb" class="highcharts-tick" fill="none"></path><path opacity="1" d="M 100.5 365 L 100.5 375" stroke-width="1" stroke="#ccd6eb" class="highcharts-tick" fill="none"></path><path opacity="1" d="M 139.5 365 L 139.5 375" stroke-width="1" stroke="#ccd6eb" class="highcharts-tick" fill="none"></path><path opacity="1" d="M 178.5 365 L 178.5 375" stroke-width="1" stroke="#ccd6eb" class="highcharts-tick" fill="none"></path><path opacity="1" d="M 217.5 365 L 217.5 375" stroke-width="1" stroke="#ccd6eb" class="highcharts-tick" fill="none"></path><path opacity="1" d="M 256.5 365 L 256.5 375" stroke-width="1" stroke="#ccd6eb" class="highcharts-tick" fill="none"></path><path opacity="1" d="M 294.5 365 L 294.5 375" stroke-width="1" stroke="#ccd6eb" class="highcharts-tick" fill="none"></path><path opacity="1" d="M 333.5 365 L 333.5 375" stroke-width="1" stroke="#ccd6eb" class="highcharts-tick" fill="none"></path><path opacity="1" d="M 372.5 365 L 372.5 375" stroke-width="1" stroke="#ccd6eb" class="highcharts-tick" fill="none"></path><path opacity="1" d="M 411.5 365 L 411.5 375" stroke-width="1" stroke="#ccd6eb" class="highcharts-tick" fill="none"></path><path opacity="1" d="M 449.5 365 L 449.5 375" stroke-width="1" stroke="#ccd6eb" class="highcharts-tick" fill="none"></path><path d="M 53 365.5 L 460 365.5" stroke-width="1" stroke="#ccd6eb" class="highcharts-axis-line" fill="none"></path></g><g class="highcharts-axis highcharts-yaxis "><path d="M 53 59 L 53 365" class="highcharts-axis-line" fill="none"></path></g><g class="highcharts-series-group"><g clip-path="url(#highcharts-9)" height="407" width="306" transform="translate(53,59) scale(1 1)" class="highcharts-series highcharts-series-0 highcharts-line-series highcharts-color-0 "><path stroke-linecap="round" stroke-linejoin="round" stroke-width="2" stroke="#7bb5ec" class="highcharts-graph" d="M 9.6904761904762 80.2594285714286 L 29.071428571429 251.48828571428572 L 48.452380952381 122.88085714285717 L 67.833333333333 150.9017142857143 L 106.59523809524 3.497142857142876 L 145.35714285714 89.22085714285714 L 164.7380952381 99.6248571428572 L 184.11904761905 98.5757142857143 L 203.5 79.77857142857144 L 222.88095238095 77.24314285714289 L 242.2619047619 65.57142857142858 L 281.02380952381 67.27628571428573 L 300.40476190476 77.63657142857147 L 319.78571428571 93.94200000000001 L 339.16666666667 136.73828571428572 L 358.54761904762 73.13400000000004 L 377.92857142857 79.21028571428576 L 397.30952380952 84.80571428571434" fill="none"></path></g><g clip-path="none" height="407" width="306" transform="translate(53,59) scale(1 1)" class="highcharts-markers highcharts-series-0 highcharts-line-series highcharts-color-0 "><path class="highcharts-point highcharts-color-0" d="M 397 80.80571428571434 C 402.328 80.80571428571434 402.328 88.80571428571434 397 88.80571428571434 C 391.672 88.80571428571434 391.672 80.80571428571434 397 80.80571428571434 Z" fill="#7bb5ec"></path><path class="highcharts-point highcharts-color-0" d="M 377 75.21028571428576 C 382.328 75.21028571428576 382.328 83.21028571428576 377 83.21028571428576 C 371.672 83.21028571428576 371.672 75.21028571428576 377 75.21028571428576 Z" fill="#7bb5ec"></path><path class="highcharts-point highcharts-color-0" d="M 358 69.13400000000004 C 363.328 69.13400000000004 363.328 77.13400000000004 358 77.13400000000004 C 352.672 77.13400000000004 352.672 69.13400000000004 358 69.13400000000004 Z" fill="#7bb5ec"></path><path class="highcharts-point highcharts-color-0" d="M 339 132.73828571428572 C 344.328 132.73828571428572 344.328 140.73828571428572 339 140.73828571428572 C 333.672 140.73828571428572 333.672 132.73828571428572 339 132.73828571428572 Z" fill="#7bb5ec"></path><path class="highcharts-point highcharts-color-0" d="M 319 89.94200000000001 C 324.328 89.94200000000001 324.328 97.94200000000001 319 97.94200000000001 C 313.672 97.94200000000001 313.672 89.94200000000001 319 89.94200000000001 Z" fill="#7bb5ec"></path><path class="highcharts-point highcharts-color-0" d="M 300 73.63657142857147 C 305.328 73.63657142857147 305.328 81.63657142857147 300 81.63657142857147 C 294.672 81.63657142857147 294.672 73.63657142857147 300 73.63657142857147 Z" fill="#7bb5ec"></path><path class="highcharts-point highcharts-color-0" d="M 281 63.276285714285734 C 286.328 63.276285714285734 286.328 71.27628571428573 281 71.27628571428573 C 275.672 71.27628571428573 275.672 63.276285714285734 281 63.276285714285734 Z" fill="#7bb5ec"></path><path class="highcharts-point highcharts-color-0" d="M 242 61.571428571428584 C 247.328 61.571428571428584 247.328 69.57142857142858 242 69.57142857142858 C 236.672 69.57142857142858 236.672 61.571428571428584 242 61.571428571428584 Z" fill="#7bb5ec"></path><path class="highcharts-point highcharts-color-0" d="M 222 73.24314285714289 C 227.328 73.24314285714289 227.328 81.24314285714289 222 81.24314285714289 C 216.672 81.24314285714289 216.672 73.24314285714289 222 73.24314285714289 Z" fill="#7bb5ec"></path><path class="highcharts-point highcharts-color-0" d="M 203 75.77857142857144 C 208.328 75.77857142857144 208.328 83.77857142857144 203 83.77857142857144 C 197.672 83.77857142857144 197.672 75.77857142857144 203 75.77857142857144 Z" fill="#7bb5ec"></path><path class="highcharts-point highcharts-color-0" d="M 184 94.5757142857143 C 189.328 94.5757142857143 189.328 102.5757142857143 184 102.5757142857143 C 178.672 102.5757142857143 178.672 94.5757142857143 184 94.5757142857143 Z" fill="#7bb5ec"></path><path class="highcharts-point highcharts-color-0" d="M 164 95.6248571428572 C 169.328 95.6248571428572 169.328 103.6248571428572 164 103.6248571428572 C 158.672 103.6248571428572 158.672 95.6248571428572 164 95.6248571428572 Z" fill="#7bb5ec"></path><path class="highcharts-point highcharts-color-0" d="M 145 85.22085714285714 C 150.328 85.22085714285714 150.328 93.22085714285714 145 93.22085714285714 C 139.672 93.22085714285714 139.672 85.22085714285714 145 85.22085714285714 Z" fill="#7bb5ec"></path><path class="highcharts-point highcharts-color-0" d="M 106 -0.502857142857124 C 111.328 -0.502857142857124 111.328 7.497142857142876 106 7.497142857142876 C 100.672 7.497142857142876 100.672 -0.502857142857124 106 -0.502857142857124 Z" fill="#7bb5ec"></path><path class="highcharts-point highcharts-color-0" d="M 67 146.9017142857143 C 72.328 146.9017142857143 72.328 154.9017142857143 67 154.9017142857143 C 61.672 154.9017142857143 61.672 146.9017142857143 67 146.9017142857143 Z" fill="#7bb5ec"></path><path class="highcharts-point highcharts-color-0" d="M 48 118.88085714285717 C 53.328 118.88085714285717 53.328 126.88085714285717 48 126.88085714285717 C 42.672 126.88085714285717 42.672 118.88085714285717 48 118.88085714285717 Z" fill="#7bb5ec"></path><path class="highcharts-point highcharts-color-0" d="M 29 247.48828571428572 C 34.328 247.48828571428572 34.328 255.48828571428572 29 255.48828571428572 C 23.672 255.48828571428572 23.672 247.48828571428572 29 247.48828571428572 Z" fill="#7bb5ec"></path><path class="highcharts-point highcharts-color-0" d="M 9 76.2594285714286 C 14.328 76.2594285714286 14.328 84.2594285714286 9 84.2594285714286 C 3.6719999999999997 84.2594285714286 3.6719999999999997 76.2594285714286 9 76.2594285714286 Z" fill="#7bb5ec"></path></g><g clip-path="url(#highcharts-9)" height="407" width="306" transform="translate(53,59) scale(1 1)" class="highcharts-series highcharts-series-1 highcharts-line-series highcharts-color-1 "><path stroke-linecap="round" stroke-linejoin="round" stroke-width="2" stroke="#3f3f44" class="highcharts-graph" d="M 9.6904761904762 73.7897142857143 L 48.452380952381 122.13771428571428 L 87.214285714286 176.256 L 125.97619047619 83.14457142857142 L 261.64285714286 52.1511428571429 L 300.40476190476 65.87742857142857 L 319.78571428571 93.94200000000001 L 339.16666666667 89.48314285714287 L 358.54761904762 83.01342857142856 L 377.92857142857 93.9857142857143 L 397.30952380952 92.23714285714286" fill="none"></path></g><g clip-path="none" height="407" width="306" transform="translate(53,59) scale(1 1)" class="highcharts-markers highcharts-series-1 highcharts-line-series highcharts-color-1 "><path class="highcharts-point highcharts-color-1" d="M 397 88.23714285714286 L 401 92.23714285714286 397 96.23714285714286 393 92.23714285714286 Z" fill="#3f3f44"></path><path class="highcharts-point highcharts-color-1" d="M 377 89.9857142857143 L 381 93.9857142857143 377 97.9857142857143 373 93.9857142857143 Z" fill="#3f3f44"></path><path class="highcharts-point highcharts-color-1" d="M 358 79.01342857142856 L 362 83.01342857142856 358 87.01342857142856 354 83.01342857142856 Z" fill="#3f3f44"></path><path class="highcharts-point highcharts-color-1" d="M 339 85.48314285714287 L 343 89.48314285714287 339 93.48314285714287 335 89.48314285714287 Z" fill="#3f3f44"></path><path class="highcharts-point highcharts-color-1" d="M 319 89.94200000000001 L 323 93.94200000000001 319 97.94200000000001 315 93.94200000000001 Z" fill="#3f3f44"></path><path class="highcharts-point highcharts-color-1" d="M 300 61.87742857142857 L 304 65.87742857142857 300 69.87742857142857 296 65.87742857142857 Z" fill="#3f3f44"></path><path class="highcharts-point highcharts-color-1" d="M 261 48.1511428571429 L 265 52.1511428571429 261 56.1511428571429 257 52.1511428571429 Z" fill="#3f3f44"></path><path class="highcharts-point highcharts-color-1" d="M 125 79.14457142857142 L 129 83.14457142857142 125 87.14457142857142 121 83.14457142857142 Z" fill="#3f3f44"></path><path class="highcharts-point highcharts-color-1" d="M 87 172.256 L 91 176.256 87 180.256 83 176.256 Z" fill="#3f3f44"></path><path class="highcharts-point highcharts-color-1" d="M 48 118.13771428571428 L 52 122.13771428571428 48 126.13771428571428 44 122.13771428571428 Z" fill="#3f3f44"></path><path class="highcharts-point highcharts-color-1" d="M 9 69.7897142857143 L 13 73.7897142857143 9 77.7897142857143 5 73.7897142857143 Z" fill="#3f3f44"></path></g></g><text y="24" style="color:#475d6b;font-size:18px;fill:#475d6b;width:536px;" class="highcharts-title" text-anchor="middle" x="300"><tspan>Voter Turnout by Election Type</tspan></text><text y="44" style="color:#475d6b;fill:#475d6b;width:536px;" class="highcharts-subtitle" text-anchor="middle" x="300"><tspan>Brazil</tspan></text><g transform="translate(472,178)" class="highcharts-legend"><rect visibility="visible" height="39" width="118" y="0" x="0" ry="0" rx="0" class="highcharts-legend-box" fill="none"></rect><g><g><g transform="translate(8,3)" class="highcharts-legend-item highcharts-line-series highcharts-color-0 highcharts-series-0"><path stroke-width="2" stroke="#7bb5ec" class="highcharts-graph" d="M 0 11 L 16 11" fill="none"></path><path class="highcharts-point" d="M 8 7 C 13.328 7 13.328 15 8 15 C 2.6719999999999997 15 2.6719999999999997 7 8 7 Z" fill="#7bb5ec"></path><text y="15" text-anchor="start" style="color:#464646;font-size:12px;font-weight:bold;cursor:pointer;fill:#464646;" x="21">Parliamentary</text></g><g transform="translate(8,17)" class="highcharts-legend-item highcharts-line-series highcharts-color-1 highcharts-series-1"><path stroke-width="2" stroke="#3f3f44" class="highcharts-graph" d="M 0 11 L 16 11" fill="none"></path><path class="highcharts-point" d="M 8 7 L 12 11 8 15 4 11 Z" fill="#3f3f44"></path><text text-anchor="start" style="color:#464646;font-size:12px;font-weight:bold;cursor:pointer;fill:#464646;" y="15" x="21">Presidential</text></g></g></g></g><g class="highcharts-axis-labels highcharts-xaxis-labels "><text opacity="1" y="384" transform="translate(0,0)" text-anchor="middle" style="color:#666666;cursor:default;font-size:11px;fill:#666666;width:37;text-overflow:ellipsis;" x="62.69047619047619"><tspan>1945</tspan></text><text opacity="1" y="384" transform="translate(0,0)" text-anchor="middle" style="color:#666666;cursor:default;font-size:11px;fill:#666666;width:37;text-overflow:ellipsis;" x="101.45238095238095"><tspan>1950</tspan></text><text opacity="1" y="384" transform="translate(0,0)" text-anchor="middle" style="color:#666666;cursor:default;font-size:11px;fill:#666666;width:37;text-overflow:ellipsis;" x="140.21428571428572"><tspan>1955</tspan></text><text opacity="1" y="384" transform="translate(0,0)" text-anchor="middle" style="color:#666666;cursor:default;font-size:11px;fill:#666666;width:37;text-overflow:ellipsis;" x="178.97619047619048"><tspan>1960</tspan></text><text opacity="1" y="384" transform="translate(0,0)" text-anchor="middle" style="color:#666666;cursor:default;font-size:11px;fill:#666666;width:37;text-overflow:ellipsis;" x="217.73809523809524"><tspan>1966</tspan></text><text opacity="1" y="384" transform="translate(0,0)" text-anchor="middle" style="color:#666666;cursor:default;font-size:11px;fill:#666666;width:37;text-overflow:ellipsis;" x="256.5"><tspan>1978</tspan></text><text opacity="1" y="384" transform="translate(0,0)" text-anchor="middle" style="color:#666666;cursor:default;font-size:11px;fill:#666666;width:37;text-overflow:ellipsis;" x="295.26190476190476"><tspan>1986</tspan></text><text opacity="1" y="384" transform="translate(0,0)" text-anchor="middle" style="color:#666666;cursor:default;font-size:11px;fill:#666666;width:37;text-overflow:ellipsis;" x="334.0238095238095"><tspan>1990</tspan></text><text opacity="1" y="384" transform="translate(0,0)" text-anchor="middle" style="color:#666666;cursor:default;font-size:11px;fill:#666666;width:37;text-overflow:ellipsis;" x="372.7857142857143"><tspan>1998</tspan></text><text opacity="1" y="384" transform="translate(0,0)" text-anchor="middle" style="color:#666666;cursor:default;font-size:11px;fill:#666666;width:37;text-overflow:ellipsis;" x="411.54761904761904"><tspan>2006</tspan></text><text opacity="1" y="384" transform="translate(0,0)" text-anchor="middle" style="color:#666666;cursor:default;font-size:11px;fill:#666666;width:37;text-overflow:ellipsis;" x="450.3095238095238"><tspan>2014</tspan></text></g><g class="highcharts-axis-labels highcharts-yaxis-labels "><text opacity="1" y="370" transform="translate(0,0)" text-anchor="end" style="color:#666666;cursor:default;font-size:11px;fill:#666666;width:188px;text-overflow:clip;" x="38"><tspan>30%</tspan></text><text opacity="1" y="326" transform="translate(0,0)" text-anchor="end" style="color:#666666;cursor:default;font-size:11px;fill:#666666;width:188px;text-overflow:clip;" x="38"><tspan>40%</tspan></text><text opacity="1" y="283" transform="translate(0,0)" text-anchor="end" style="color:#666666;cursor:default;font-size:11px;fill:#666666;width:188px;text-overflow:clip;" x="38"><tspan>50%</tspan></text><text opacity="1" y="239" transform="translate(0,0)" text-anchor="end" style="color:#666666;cursor:default;font-size:11px;fill:#666666;width:188px;text-overflow:clip;" x="38"><tspan>60%</tspan></text><text opacity="1" y="195" transform="translate(0,0)" text-anchor="end" style="color:#666666;cursor:default;font-size:11px;fill:#666666;width:188px;text-overflow:clip;" x="38"><tspan>70%</tspan></text><text opacity="1" y="151" transform="translate(0,0)" text-anchor="end" style="color:#666666;cursor:default;font-size:11px;fill:#666666;width:188px;text-overflow:clip;" x="38"><tspan>80%</tspan></text><text opacity="1" y="108" transform="translate(0,0)" text-anchor="end" style="color:#666666;cursor:default;font-size:11px;fill:#666666;width:188px;text-overflow:clip;" x="38"><tspan>90%</tspan></text><text opacity="1" y="64" transform="translate(0,0)" text-anchor="end" style="color:#666666;cursor:default;font-size:11px;fill:#666666;width:188px;text-overflow:clip;" x="38"><tspan>100%</tspan></text></g><g transform="translate(0,0)" style="cursor:default;pointer-events:none;white-space:nowrap;" display="none" class="highcharts-label highcharts-tooltip"><path transform="translate(1, 1)" stroke-width="5" stroke-opacity="0.049999999999999996" stroke="#000000"  d="M 3.5 0.5 L 13.5 0.5 C 16.5 0.5 16.5 0.5 16.5 3.5 L 16.5 13.5 C 16.5 16.5 16.5 16.5 13.5 16.5 L 3.5 16.5 C 0.5 16.5 0.5 16.5 0.5 13.5 L 0.5 3.5 C 0.5 0.5 0.5 0.5 3.5 0.5" class="highcharts-label-box highcharts-tooltip-box" fill="none"></path><path transform="translate(1, 1)" stroke-width="3" stroke-opacity="0.09999999999999999" stroke="#000000"  d="M 3.5 0.5 L 13.5 0.5 C 16.5 0.5 16.5 0.5 16.5 3.5 L 16.5 13.5 C 16.5 16.5 16.5 16.5 13.5 16.5 L 3.5 16.5 C 0.5 16.5 0.5 16.5 0.5 13.5 L 0.5 3.5 C 0.5 0.5 0.5 0.5 3.5 0.5" class="highcharts-label-box highcharts-tooltip-box" fill="none"></path><path transform="translate(1, 1)" stroke-width="1" stroke-opacity="0.15" stroke="#000000"  d="M 3.5 0.5 L 13.5 0.5 C 16.5 0.5 16.5 0.5 16.5 3.5 L 16.5 13.5 C 16.5 16.5 16.5 16.5 13.5 16.5 L 3.5 16.5 C 0.5 16.5 0.5 16.5 0.5 13.5 L 0.5 3.5 C 0.5 0.5 0.5 0.5 3.5 0.5" class="highcharts-label-box highcharts-tooltip-box" fill="none"></path><path d="M 3.5 0.5 L 13.5 0.5 C 16.5 0.5 16.5 0.5 16.5 3.5 L 16.5 13.5 C 16.5 16.5 16.5 16.5 13.5 16.5 L 3.5 16.5 C 0.5 16.5 0.5 16.5 0.5 13.5 L 0.5 3.5 C 0.5 0.5 0.5 0.5 3.5 0.5" class="highcharts-label-box highcharts-tooltip-box" fill="rgb(247,247,247)" fill-opacity="0.85"></path><text y="20" style="font-size:12px;color:#333333;fill:#333333;" x="8"></text></g></svg>